<mxfile host="www.draw.io" modified="2020-07-20T23:23:48.170Z" agent="5.0 (Macintosh; Intel Mac OS X 10_14_6) AppleWebKit/537.36 (KHTML, like Gecko) Chrome/84.0.4147.89 Safari/537.36" etag="6d82Q56D9G5hRzIH256d" version="13.4.8" type="github">
  <diagram id="kgkkx0kc5RLGJo3Dkus4" name="Page-1">
    <mxGraphModel dx="1333" dy="789" grid="1" gridSize="10" guides="1" tooltips="1" connect="1" arrows="1" fold="1" page="1" pageScale="1" pageWidth="827" pageHeight="1169" math="0" shadow="0">
      <root>
        <mxCell id="0" />
        <mxCell id="1" parent="0" />
        <mxCell id="GMD_i3NNAeKQ_1Q0VSkO-1" value="access from rancher proxy" style="rounded=1;whiteSpace=wrap;html=1;" vertex="1" parent="1">
          <mxGeometry x="230" y="90" width="120" height="60" as="geometry" />
        </mxCell>
        <mxCell id="GMD_i3NNAeKQ_1Q0VSkO-2" value="prometheus-agent" style="rounded=1;whiteSpace=wrap;html=1;" vertex="1" parent="1">
          <mxGeometry x="230" y="240" width="120" height="60" as="geometry" />
        </mxCell>
        <mxCell id="GMD_i3NNAeKQ_1Q0VSkO-3" value="prometheus" style="rounded=1;whiteSpace=wrap;html=1;" vertex="1" parent="1">
          <mxGeometry x="230" y="370" width="120" height="60" as="geometry" />
        </mxCell>
        <mxCell id="GMD_i3NNAeKQ_1Q0VSkO-4" value="add header rancher-user" style="endArrow=classic;html=1;exitX=0.5;exitY=1;exitDx=0;exitDy=0;entryX=0.5;entryY=0;entryDx=0;entryDy=0;" edge="1" parent="1" source="GMD_i3NNAeKQ_1Q0VSkO-1" target="GMD_i3NNAeKQ_1Q0VSkO-2">
          <mxGeometry width="50" height="50" relative="1" as="geometry">
            <mxPoint x="170" y="210" as="sourcePoint" />
            <mxPoint x="220" y="160" as="targetPoint" />
          </mxGeometry>
        </mxCell>
        <mxCell id="GMD_i3NNAeKQ_1Q0VSkO-5" value="" style="endArrow=classic;html=1;entryX=0.5;entryY=0;entryDx=0;entryDy=0;exitX=0.5;exitY=1;exitDx=0;exitDy=0;" edge="1" parent="1" source="GMD_i3NNAeKQ_1Q0VSkO-2" target="GMD_i3NNAeKQ_1Q0VSkO-3">
          <mxGeometry width="50" height="50" relative="1" as="geometry">
            <mxPoint x="300" y="320" as="sourcePoint" />
            <mxPoint x="300" y="250" as="targetPoint" />
          </mxGeometry>
        </mxCell>
        <mxCell id="GMD_i3NNAeKQ_1Q0VSkO-6" value="add namespace condition" style="edgeLabel;html=1;align=center;verticalAlign=middle;resizable=0;points=[];" vertex="1" connectable="0" parent="GMD_i3NNAeKQ_1Q0VSkO-5">
          <mxGeometry x="-0.2861" y="2" relative="1" as="geometry">
            <mxPoint x="-2" y="8" as="offset" />
          </mxGeometry>
        </mxCell>
        <mxCell id="GMD_i3NNAeKQ_1Q0VSkO-8" value="" style="curved=1;endArrow=classic;html=1;exitX=1;exitY=0;exitDx=0;exitDy=0;entryX=1;entryY=1;entryDx=0;entryDy=0;" edge="1" parent="1" source="GMD_i3NNAeKQ_1Q0VSkO-2" target="GMD_i3NNAeKQ_1Q0VSkO-2">
          <mxGeometry width="50" height="50" relative="1" as="geometry">
            <mxPoint x="390" y="420" as="sourcePoint" />
            <mxPoint x="440" y="230" as="targetPoint" />
            <Array as="points">
              <mxPoint x="390" y="230" />
              <mxPoint x="420" y="270" />
              <mxPoint x="390" y="310" />
            </Array>
          </mxGeometry>
        </mxCell>
        <mxCell id="GMD_i3NNAeKQ_1Q0VSkO-9" value="check user authorized namespace" style="edgeLabel;html=1;align=center;verticalAlign=middle;resizable=0;points=[];" vertex="1" connectable="0" parent="GMD_i3NNAeKQ_1Q0VSkO-8">
          <mxGeometry x="-0.1553" y="-6" relative="1" as="geometry">
            <mxPoint x="43.34" as="offset" />
          </mxGeometry>
        </mxCell>
      </root>
    </mxGraphModel>
  </diagram>
</mxfile>
